<svg width="33" height="33" viewBox="0 0 33 33" fill="none" xmlns="http://www.w3.org/2000/svg">
<path d="M16.5 33C25.6127 33 33 25.6127 33 16.5C33 7.3873 25.6127 0 16.5 0C7.3873 0 0 7.3873 0 16.5C0 25.6127 7.3873 33 16.5 33ZM11.4305 16.1732L14.1985 19.1718L21.4725 9.8706C22.0963 9.07302 23.2485 8.9321 24.0461 9.55585C24.8436 10.1796 24.9846 11.3318 24.3608 12.1294L15.7583 23.1294C15.0619 24.0198 13.7336 24.0741 12.967 23.2435L8.73619 18.6602C8.04942 17.9162 8.09582 16.7563 8.83982 16.0695C9.58382 15.3828 10.7437 15.4291 11.4305 16.1732Z" fill="#A6C05D"/>
</svg>
