<svg width="36" height="36" viewBox="0 0 36 36" fill="none" xmlns="http://www.w3.org/2000/svg">
<path d="M2.73853 25C2.3876 25 2.09344 24.8813 1.85605 24.6439C1.61868 24.4065 1.5 24.1124 1.5 23.7615V23.2551C1.5 22.3028 1.99725 21.5206 2.99175 20.9087C3.98625 20.2968 5.28258 19.9908 6.88074 19.9908C7.14496 19.9908 7.41102 19.9991 7.67892 20.0156C7.94682 20.0321 8.21655 20.0642 8.48809 20.1119C8.2092 20.5578 8.00232 21.0206 7.86745 21.5004C7.73261 21.9803 7.66518 22.4725 7.66518 22.9771V25H2.73853ZM11.3865 25C11.0139 25 10.7042 24.876 10.4574 24.6281C10.2106 24.3802 10.0872 24.0729 10.0872 23.7064V23.0321C10.0872 22.3621 10.2753 21.7496 10.6515 21.1947C11.0276 20.6398 11.5698 20.156 12.2781 19.7431C12.9863 19.3303 13.823 19.0206 14.7882 18.8142C15.7533 18.6078 16.8084 18.5046 17.9533 18.5046C19.1203 18.5046 20.1864 18.6078 21.1515 18.8142C22.1166 19.0206 22.9533 19.3303 23.6616 19.7431C24.3699 20.156 24.9084 20.6398 25.2772 21.1947C25.646 21.7496 25.8304 22.3621 25.8304 23.0321V23.7064C25.8304 24.0729 25.7065 24.3802 25.4585 24.6281C25.2106 24.876 24.9034 25 24.5368 25H11.3865ZM28.2525 25V22.979C28.2525 22.4401 28.1887 21.933 28.0612 21.4578C27.9337 20.9826 27.7424 20.5339 27.4874 20.1119C27.7681 20.0642 28.0364 20.0321 28.2924 20.0156C28.5484 19.9991 28.8011 19.9908 29.0507 19.9908C30.6489 19.9908 31.9429 20.2931 32.9328 20.8977C33.9227 21.5023 34.4177 22.2881 34.4177 23.2551V23.7615C34.4177 24.1124 34.299 24.4065 34.0616 24.6439C33.8242 24.8813 33.5301 25 33.1792 25H28.2525ZM6.87709 18.6009C6.20246 18.6009 5.62616 18.361 5.14819 17.8813C4.67021 17.4017 4.43122 16.825 4.43122 16.1514C4.43122 15.4688 4.67107 14.8922 5.15076 14.4215C5.63046 13.9509 6.20712 13.7156 6.88074 13.7156C7.56331 13.7156 8.14221 13.9509 8.61744 14.4215C9.09267 14.8922 9.33029 15.4702 9.33029 16.1554C9.33029 16.8206 9.09519 17.3945 8.62499 17.8771C8.15479 18.3596 7.57216 18.6009 6.87709 18.6009ZM29.0507 18.6009C28.3828 18.6009 27.8076 18.3596 27.325 17.8771C26.8424 17.3945 26.6012 16.8206 26.6012 16.1554C26.6012 15.4702 26.8424 14.8922 27.325 14.4215C27.8076 13.9509 28.3837 13.7156 29.0534 13.7156C29.7433 13.7156 30.3236 13.9509 30.7942 14.4215C31.2649 14.8922 31.5002 15.4688 31.5002 16.1514C31.5002 16.825 31.2655 17.4017 30.796 17.8813C30.3265 18.361 29.7447 18.6009 29.0507 18.6009ZM17.9637 17.4312C16.9329 17.4312 16.0552 17.0699 15.3304 16.3474C14.6056 15.625 14.2432 14.7477 14.2432 13.7156C14.2432 12.6628 14.6045 11.7804 15.3269 11.0682C16.0494 10.3561 16.9267 10 17.9588 10C19.0116 10 19.894 10.3556 20.6062 11.0668C21.3184 11.778 21.6744 12.6593 21.6744 13.7107C21.6744 14.7415 21.3188 15.6192 20.6076 16.344C19.8964 17.0688 19.0151 17.4312 17.9637 17.4312Z" fill="white"/>
</svg>
