<svg width="20" height="22" viewBox="0 0 20 22" fill="none" xmlns="http://www.w3.org/2000/svg">
<path d="M5.43994 16.3193C4.34894 16.3193 3.50694 15.9053 2.91394 15.0771C2.32111 14.2488 2.03811 13.2686 2.06494 12.1366V12.0501L1.53794 11.2406C1.27777 10.8354 0.967275 10.1457 0.606441 9.17134C0.245441 8.19684 0.0649414 7.0795 0.0649414 5.81934C0.0649414 4.24367 0.443441 2.93309 1.20044 1.88759C1.95761 0.842085 2.91244 0.319336 4.06494 0.319336C5.28294 0.319336 6.25411 0.881169 6.97844 2.00484C7.70278 3.12867 8.06494 4.40017 8.06494 5.81934C8.06494 6.74117 7.93003 7.62159 7.66019 8.46059C7.39019 9.29975 7.14244 9.98534 6.91694 10.5173L7.24194 11.0541C7.40727 11.3323 7.58577 11.6983 7.77744 12.1521C7.96911 12.6059 8.06494 13.0533 8.06494 13.4943C8.06494 14.3033 7.81719 14.9764 7.32169 15.5136C6.82619 16.0508 6.19894 16.3193 5.43994 16.3193ZM2.99769 10.7078L5.44944 10.1673C5.67894 9.634 5.92227 8.976 6.17944 8.19334C6.43644 7.41067 6.56494 6.61934 6.56494 5.81934C6.56494 4.78084 6.33094 3.85459 5.86294 3.04059C5.39511 2.22642 4.79577 1.81934 4.06494 1.81934C3.33411 1.81934 2.73477 2.22642 2.26694 3.04059C1.79894 3.85459 1.56494 4.78084 1.56494 5.81934C1.56494 6.8245 1.71561 7.76325 2.01694 8.63559C2.31811 9.50809 2.64502 10.1988 2.99769 10.7078ZM5.43994 14.8193C5.76294 14.8193 6.03119 14.6995 6.24469 14.4598C6.45819 14.22 6.56494 13.8982 6.56494 13.4943C6.56494 13.211 6.49344 12.9033 6.35044 12.5713C6.20761 12.2392 6.03744 11.918 5.83994 11.6078L3.56494 12.1271C3.56494 12.8963 3.71877 13.5373 4.02644 14.0501C4.33411 14.5629 4.80527 14.8193 5.43994 14.8193ZM13.6899 21.3193C12.9309 21.3193 12.3037 21.0508 11.8082 20.5136C11.3127 19.9764 11.0649 19.3033 11.0649 18.4943C11.0649 18.0533 11.1608 17.6059 11.3524 17.1521C11.5441 16.6983 11.7226 16.3323 11.8879 16.0541L12.2129 15.5173C11.9938 14.9917 11.7477 14.3078 11.4747 13.4656C11.2015 12.6233 11.0649 11.7412 11.0649 10.8193C11.0649 9.40017 11.4271 8.12867 12.1514 7.00484C12.8758 5.88117 13.8469 5.31934 15.0649 5.31934C16.2174 5.31934 17.1723 5.84209 17.9294 6.88759C18.6864 7.93309 19.0649 9.24367 19.0649 10.8193C19.0649 12.0795 18.8861 13.191 18.5284 14.1538C18.1708 15.1167 17.8586 15.8071 17.5919 16.2251L17.0649 17.0501V17.1463C17.0816 18.2592 16.7944 19.2328 16.2034 20.0673C15.6124 20.902 14.7746 21.3193 13.6899 21.3193ZM16.0937 15.7656C16.5169 15.1028 16.8679 14.3745 17.1467 13.5808C17.4255 12.7873 17.5649 11.8668 17.5649 10.8193C17.5649 9.78084 17.3309 8.85459 16.8629 8.04059C16.3951 7.22642 15.7958 6.81934 15.0649 6.81934C14.3341 6.81934 13.7348 7.22642 13.2669 8.04059C12.7989 8.85459 12.5649 9.78084 12.5649 10.8193C12.5649 11.6193 12.6951 12.4065 12.9554 13.1808C13.2156 13.9552 13.4573 14.6173 13.6804 15.1673L16.0937 15.7656ZM13.6899 19.8193C14.3118 19.8193 14.7797 19.5662 15.0937 19.0598C15.4079 18.5533 15.5649 17.9315 15.5649 17.1943L13.2997 16.5981C13.147 16.8699 12.9864 17.1735 12.8179 17.5088C12.6493 17.844 12.5649 18.1725 12.5649 18.4943C12.5649 18.834 12.6723 19.1398 12.8869 19.4116C13.1018 19.6834 13.3694 19.8193 13.6899 19.8193Z" fill="#F1BD45"/>
</svg>
